Results
version=1
nRows=12
nColumns=24
inDegrees=yes
endheader
time	pelvis_tilt	pelvis_list	pelvis_rotation	pelvis_tx	pelvis_ty	pelvis_tz	hip_flexion_r	hip_adduction_r	hip_rotation_r	knee_angle_r	ankle_angle_r	subtalar_angle_r	mtp_angle_r	hip_flexion_l	hip_adduction_l	hip_rotation_l	knee_angle_l	ankle_angle_l	subtalar_angle_l	mtp_angle_l	lumbar_extension	lumbar_bending	lumbar_rotation
      1.12883333	     -2.40741143	     -2.00991827	     -3.29451142	     -0.03950967	      0.97617713	      0.32604297	    -16.99940641	      3.80681220	     -2.27067141	     -2.77988053	     16.49124906	     -1.45332104	      1.34168020	     24.97757193	     -0.88439562	     -4.35660791	      4.83626754	     -2.31779537	     -2.89772086	      1.45407293	    -11.28870488	      6.95907440	      9.63565522
      1.13300000	     -2.37600885	     -1.86235063	     -3.25424954	     -0.03352756	      0.97538711	      0.32565198	    -17.15456090	      3.59056876	     -2.48285123	     -3.28375970	     16.68797703	     -1.15717818	      1.41379517	     24.95406347	     -0.64012412	     -4.20831270	      4.67522702	     -2.49329243	     -3.27435610	      1.46616931	    -11.27875192	      6.76551586	      9.61885035
      1.13716667	     -2.34682673	     -1.69330420	     -3.21394781	     -0.02751726	      0.97463447	      0.32524836	    -17.29340427	      3.34951505	     -2.67203243	     -3.81660157	     16.87019984	     -0.89032270	      1.49545276	     24.93478662	     -0.37733526	     -4.01958344	      4.44401482	     -2.74068043	     -3.72611009	      1.49396966	    -11.26935940	      6.54330364	      9.58918795
      1.14133333	     -2.32806777	     -1.50835944	     -3.16988424	     -0.02147176	      0.97391675	      0.32483908	    -17.40450710	      3.09291502	     -2.85364419	     -4.38379005	     17.03206186	     -0.64091088	      1.58513647	     24.93167810	     -0.10130310	     -3.79854252	      4.13907416	     -3.05730044	     -4.24887448	      1.53558065	    -11.24691140	      6.30468371	      9.55344955
      1.14550000	     -2.29911950	     -1.30825132	     -3.12313182	     -0.01539295	      0.97325114	      0.32441940	    -17.50673296	      2.81903374	     -3.04056187	     -4.99449880	     17.17183384	     -0.40708341	      1.69141012	     24.91651973	      0.18823444	     -3.53425116	      3.77988896	     -3.44228818	     -4.86350934	      1.59344996	    -11.22674291	      6.04153910	      9.50682921
      1.14966667	     -2.28378212	     -1.09399276	     -3.07553394	     -0.00928891	      0.97261982	      0.32399215	    -17.57768137	      2.53063778	     -3.20846039	     -5.63797196	     17.28549007	     -0.20098668	      1.81004678	     24.92362642	      0.48956752	     -3.25518727	      3.35603544	     -3.89882048	     -5.53247051	      1.66106870	    -11.19053737	      5.76362177	      9.45333415
      1.15383333	     -2.26450623	     -0.86940049	     -3.02132968	     -0.00315752	      0.97203414	      0.32354304	    -17.63652425	      2.23153376	     -3.37692706	     -6.31608645	     17.36494993	     -0.01401976	      1.94809459	     24.92965805	      0.80284490	     -2.93797453	      2.88345567	     -4.41662480	     -6.27279546	      1.74125044	    -11.15807834	      5.47506080	      9.38885643
      1.15800000	     -2.25028812	     -0.63109099	     -2.96428400	      0.00299672	      0.97148937	      0.32307402	    -17.67150748	      1.91778980	     -3.53708016	     -7.03138176	     17.40957518	      0.15090657	      2.11146233	     24.94599333	      1.12997539	     -2.60456121	      2.36424418	     -4.99313925	     -7.06364401	      1.83131107	    -11.12043488	      5.17051979	      9.31828019
      1.16216667	     -2.23925294	     -0.38214760	     -2.90494858	      0.00917993	      0.97098854	      0.32260632	    -17.68600105	      1.59443810	     -3.68442653	     -7.78311670	     17.41249769	      0.27394362	      2.30719955	     24.96827046	      1.46645002	     -2.25228083	      1.80741981	     -5.60303280	     -7.87817767	      1.93017206	    -11.07289924	      4.85117048	      9.24053266
      1.16633333	     -2.24830826	     -0.11855841	     -2.84988135	      0.01537766	      0.97051576	      0.32212379	    -17.66412789	      1.25505903	     -3.80327859	     -8.55905068	     17.38894072	      0.37388559	      2.51049920	     25.02543391	      1.81554071	     -1.92710509	      1.19789366	     -6.28369386	     -8.72326452	      2.01570696	    -11.01268646	      4.51630903	      9.15278857
      1.17050000	     -2.23983611	      0.13574364	     -2.78110549	      0.02158510	      0.97011183	      0.32161338	    -17.63628695	      0.92755530	     -3.94105863	     -9.38724210	     17.30512859	      0.44694952	      2.74723947	     25.06985897	      2.16173864	     -1.58283518	      0.55677685	     -6.97933464	     -9.60878984	      2.09788249	    -10.94873458	      4.18847833	      9.06016626
      1.17466667	     -2.23903838	      0.40701573	     -2.71087522	      0.02780386	      0.96974655	      0.32108724	    -17.57562551	      0.58204853	     -4.07157575	    -10.26247829	     17.16330456	      0.48446890	      3.06769671	     25.11684365	      2.52542845	     -1.19489199	     -0.09345301	     -7.66090442	    -10.49752469	      2.18870088	    -10.89448869	      3.84265434	      8.96586929
